<svg width="150" height="173" viewBox="0 0 150 173" fill="none" xmlns="http://www.w3.org/2000/svg">
<path d="M111.807 150.789L74.9635 172L37.8765 150.597L75.3575 85.775L111.807 150.789Z" fill="url(#paint0_linear)"/>
<path d="M149.461 86.026V128.98L111.719 150.794L75.1975 85.776L149.461 86.026Z" fill="url(#paint1_linear)"/>
<path d="M112.03 21.3942L75.2685 85.78L37.8615 21.4142L74.9625 0L112.03 21.3942Z" fill="url(#paint2_linear)"/>
<path d="M149.462 42.9991V86.026L75.2045 85.779L112.033 21.3934L149.462 42.9991Z" fill="url(#paint3_linear)"/>
<path d="M75.6935 85.717L37.8765 150.597L0.462494 129.002V86.027L75.6935 85.717Z" fill="url(#paint4_linear)"/>
<path d="M75.2685 85.78L0.462494 86.027V43.0009L37.8615 21.4142L75.2685 85.78Z" fill="url(#paint5_linear)"/>
<path d="M120.471 26.0702V59.93L149.999 76.859V42.9999L120.471 26.0702Z" fill="#6A4FA0"/>
<path d="M75.0005 33.8594L59.0575 42.9999V58.578L75.0005 67.719L90.9435 58.578V43.0031V42.9999L75.0005 33.8594Z" fill="#34403B"/>
<path d="M29.5285 26.0702L0 42.9999V76.859L29.5285 59.93V26.0702Z" fill="#90C64D"/>
<path d="M45.4715 16.9297L75.0005 33.8594L104.528 16.9297L75.0005 0L45.4715 16.9297Z" fill="#4FA9E0"/>
<path d="M104.528 155.07L75.0005 138.141L45.4715 155.07L75.0005 172L104.528 155.07Z" fill="#E88F3F"/>
<path d="M45.4715 50.7891L59.0565 58.578V42.9995L75.0005 33.8594L45.4715 16.9297L29.5285 26.0706V59.93L45.4715 50.7891Z" fill="#037D4D"/>
<path d="M29.5285 145.93V112.07L0 95.141V129L29.5285 145.93Z" fill="#EBCE38"/>
<path d="M59.0565 76.859V58.578L45.4715 50.7891L29.5285 59.93V78.211L43.1135 86L59.0565 76.859Z" fill="#1C5F43"/>
<path d="M59.0565 76.859L43.1135 86L59.0565 95.141V76.859Z" fill="#2B5140"/>
<path d="M59.0565 58.578V76.859L75.0005 67.718L59.0565 58.578Z" fill="#383A3A"/>
<path d="M120.471 145.93L149.999 129V95.141L120.471 112.07V145.93Z" fill="#D65196"/>
<path d="M120.472 59.93V78.211L106.887 86L120.472 93.789V112.07L150 95.141V76.859L120.472 59.93Z" fill="#7A2F89"/>
<path d="M90.9435 58.578V76.859L106.887 86L120.472 78.211V59.93L104.529 50.7891L90.9435 58.578Z" fill="#30358A"/>
<path d="M90.9435 95.14L106.886 86H106.887L90.9435 76.859V95.14Z" fill="#3A383A"/>
<path d="M90.9435 76.859V58.578L75.0005 67.719L90.9435 76.859Z" fill="#383739"/>
<path d="M59.0565 95.141V113.422L75.0005 104.282V104.281L59.0565 95.141Z" fill="#42423D"/>
<path d="M75.0005 104.282L75.2635 104.432L90.9435 113.422V95.141L75.0005 104.282Z" fill="#63363A"/>
<path d="M59.0565 76.859V95.141L75.0005 104.282L90.9435 95.141H90.9425L90.9435 95.14V76.859L75.0005 67.719L59.0565 76.859Z" fill="#383739"/>
<path d="M59.0565 129V128.997V113.422L45.4715 121.211L29.5285 112.07V145.929V145.93L45.4715 155.071L75.0005 138.141L59.0565 129Z" fill="#D7812B"/>
<path d="M75.0005 104.281V104.282L59.0575 113.422V128.997V128.998V129L75.0005 138.141L90.9435 129V113.422L75.0005 104.281Z" fill="#BB3D2F"/>
<path d="M90.9435 43.003V58.578L104.528 50.7891L120.471 59.93V26.0702L104.528 16.9297L75.0005 33.8594L90.9435 42.9995V43.003Z" fill="#2B4696"/>
<path d="M75.0005 33.8594L59.0575 42.9999V58.578L75.0005 67.719L90.9435 58.578V43.0031V42.9999L75.0005 33.8594Z" fill="#34403B"/>
<path d="M104.525 121.209L90.9435 113.422V129L75.0005 138.141L104.527 155.07H104.528L120.471 145.93V112.071L104.528 121.211L104.525 121.209Z" fill="#D03C2B"/>
<path d="M106.887 86L90.9435 95.141V113.422L104.526 121.209L104.529 121.211L120.472 112.07V93.789L106.887 86Z" fill="#753438"/>
<path d="M43.1135 86L29.5285 78.211V59.93L0.000404358 76.859H0V95.141L29.5285 112.07V93.789L29.5305 93.787L43.1135 86Z" fill="#4AA847"/>
<path d="M59.0565 95.141L43.1135 86L29.5315 93.787L29.5285 93.789V112.07L45.4715 121.211L59.0565 113.422V95.141Z" fill="#5B7B42"/>
<defs>
<linearGradient id="paint0_linear" x1="74.5885" y1="172.224" x2="74.5885" y2="85.784" gradientUnits="userSpaceOnUse">
<stop offset="0.15" stop-color="#E88F3F"/>
<stop offset="0.4" stop-color="#BB3D2F"/>
<stop offset="0.75" stop-color="#383739"/>
</linearGradient>
<linearGradient id="paint1_linear" x1="148.567" y1="130.051" x2="76.9195" y2="83.291" gradientUnits="userSpaceOnUse">
<stop offset="0.15" stop-color="#D65196"/>
<stop offset="0.4" stop-color="#753438"/>
<stop offset="0.75" stop-color="#383739"/>
</linearGradient>
<linearGradient id="paint2_linear" x1="74.8805" y1="-0.1706" x2="74.8805" y2="85.784" gradientUnits="userSpaceOnUse">
<stop offset="0.15" stop-color="#4FA9E0"/>
<stop offset="0.4" stop-color="#34403B"/>
<stop offset="0.75" stop-color="#383739"/>
</linearGradient>
<linearGradient id="paint3_linear" x1="148.181" y1="41.4622" x2="78.5725" y2="90.445" gradientUnits="userSpaceOnUse">
<stop offset="0.15" stop-color="#6A4FA0"/>
<stop offset="0.5" stop-color="#30358A"/>
<stop offset="0.75" stop-color="#383739"/>
</linearGradient>
<linearGradient id="paint4_linear" x1="1.13409" y1="129.911" x2="73.3375" y2="82.788" gradientUnits="userSpaceOnUse">
<stop offset="0.15" stop-color="#EBCE36"/>
<stop offset="0.4" stop-color="#5B7B42"/>
<stop offset="0.75" stop-color="#383739"/>
</linearGradient>
<linearGradient id="paint5_linear" x1="1.14719" y1="42.0609" x2="73.1565" y2="89.057" gradientUnits="userSpaceOnUse">
<stop offset="0.15" stop-color="#90C64D"/>
<stop offset="0.4" stop-color="#1C5F43"/>
<stop offset="0.75" stop-color="#383739"/>
</linearGradient>
</defs>
</svg>
